<mxfile host="app.diagrams.net" modified="2024-05-17T12:15:56.128Z" agent="Mozilla/5.0 (X11; Linux x86_64; rv:125.0) Gecko/20100101 Firefox/125.0" etag="3BSwyTMUpRH4sdzOz9n8" version="24.4.0" type="github">
  <diagram name="Page-1" id="D14J8XbAHn9LdiMNYwKa">
    <mxGraphModel dx="9136" dy="6336" grid="1" gridSize="10" guides="1" tooltips="1" connect="1" arrows="1" fold="1" page="1" pageScale="1" pageWidth="850" pageHeight="1100" math="0" shadow="0">
      <root>
        <mxCell id="0" />
        <mxCell id="1" parent="0" />
        <mxCell id="dJXp4Z6MerD060ASTxBt-2" value="&lt;font style=&quot;font-size: 48px;&quot;&gt;Api-Gate-Way&lt;/font&gt;" style="whiteSpace=wrap;html=1;aspect=fixed;" vertex="1" parent="1">
          <mxGeometry x="-2250" y="-390" width="660" height="660" as="geometry" />
        </mxCell>
        <mxCell id="dJXp4Z6MerD060ASTxBt-8" value="" style="shape=flexArrow;endArrow=classic;html=1;rounded=0;endWidth=37.64705882352941;endSize=7.588235294117648;" edge="1" parent="1">
          <mxGeometry width="50" height="50" relative="1" as="geometry">
            <mxPoint x="-2240" y="50" as="sourcePoint" />
            <mxPoint x="-2685" y="50" as="targetPoint" />
            <Array as="points">
              <mxPoint x="-2455" y="50" />
            </Array>
          </mxGeometry>
        </mxCell>
        <mxCell id="dJXp4Z6MerD060ASTxBt-9" value="" style="shape=flexArrow;endArrow=classic;html=1;rounded=0;endWidth=37.64705882352941;endSize=7.588235294117648;" edge="1" parent="1">
          <mxGeometry width="50" height="50" relative="1" as="geometry">
            <mxPoint x="-2675" y="-285" as="sourcePoint" />
            <mxPoint x="-2240" y="-285.3435114503818" as="targetPoint" />
            <Array as="points">
              <mxPoint x="-2675" y="-290" />
            </Array>
          </mxGeometry>
        </mxCell>
        <mxCell id="dJXp4Z6MerD060ASTxBt-10" value="&lt;font style=&quot;font-size: 36px;&quot;&gt;request&lt;/font&gt;" style="whiteSpace=wrap;html=1;" vertex="1" parent="1">
          <mxGeometry x="-2620" y="-360" width="320" height="60" as="geometry" />
        </mxCell>
        <mxCell id="dJXp4Z6MerD060ASTxBt-11" value="&lt;font style=&quot;font-size: 36px;&quot;&gt;response&lt;/font&gt;" style="rounded=0;whiteSpace=wrap;html=1;" vertex="1" parent="1">
          <mxGeometry x="-2610" y="70" width="300" height="60" as="geometry" />
        </mxCell>
        <mxCell id="dJXp4Z6MerD060ASTxBt-12" value="&lt;font style=&quot;font-size: 48px;&quot;&gt;MainEurekaRegistry&lt;/font&gt;" style="whiteSpace=wrap;html=1;aspect=fixed;" vertex="1" parent="1">
          <mxGeometry x="220" y="-3150" width="660" height="660" as="geometry" />
        </mxCell>
        <mxCell id="dJXp4Z6MerD060ASTxBt-15" value="" style="endArrow=none;html=1;rounded=0;exitX=0.163;exitY=-0.008;exitDx=0;exitDy=0;exitPerimeter=0;" edge="1" parent="1" source="dJXp4Z6MerD060ASTxBt-2">
          <mxGeometry width="50" height="50" relative="1" as="geometry">
            <mxPoint x="-1930" y="-470" as="sourcePoint" />
            <mxPoint x="-2110" y="-2760" as="targetPoint" />
          </mxGeometry>
        </mxCell>
        <mxCell id="dJXp4Z6MerD060ASTxBt-16" value="" style="endArrow=none;html=1;rounded=0;entryX=0;entryY=0.5;entryDx=0;entryDy=0;" edge="1" parent="1" target="dJXp4Z6MerD060ASTxBt-12">
          <mxGeometry width="50" height="50" relative="1" as="geometry">
            <mxPoint x="-2110" y="-2760" as="sourcePoint" />
            <mxPoint x="-1520" y="-1170" as="targetPoint" />
          </mxGeometry>
        </mxCell>
        <mxCell id="dJXp4Z6MerD060ASTxBt-18" value="&lt;font style=&quot;font-size: 36px;&quot;&gt;Public-gate-Way&lt;/font&gt;" style="whiteSpace=wrap;html=1;aspect=fixed;" vertex="1" parent="1">
          <mxGeometry x="-1180" y="1360" width="660" height="660" as="geometry" />
        </mxCell>
        <mxCell id="dJXp4Z6MerD060ASTxBt-19" value="" style="endArrow=none;html=1;rounded=0;exitX=0.5;exitY=0;exitDx=0;exitDy=0;" edge="1" parent="1">
          <mxGeometry width="50" height="50" relative="1" as="geometry">
            <mxPoint x="-855" y="1360" as="sourcePoint" />
            <mxPoint x="-830" y="-2530" as="targetPoint" />
          </mxGeometry>
        </mxCell>
        <mxCell id="dJXp4Z6MerD060ASTxBt-20" value="" style="endArrow=none;html=1;rounded=0;entryX=-0.001;entryY=0.7;entryDx=0;entryDy=0;entryPerimeter=0;" edge="1" parent="1" target="dJXp4Z6MerD060ASTxBt-12">
          <mxGeometry width="50" height="50" relative="1" as="geometry">
            <mxPoint x="-850" y="-2540" as="sourcePoint" />
            <mxPoint x="-750" y="-1210" as="targetPoint" />
          </mxGeometry>
        </mxCell>
        <mxCell id="dJXp4Z6MerD060ASTxBt-26" value="" style="shape=flexArrow;endArrow=classic;html=1;rounded=0;exitX=0.405;exitY=1.006;exitDx=0;exitDy=0;exitPerimeter=0;entryX=-0.002;entryY=0.651;entryDx=0;entryDy=0;entryPerimeter=0;" edge="1" parent="1" source="dJXp4Z6MerD060ASTxBt-2" target="dJXp4Z6MerD060ASTxBt-18">
          <mxGeometry width="50" height="50" relative="1" as="geometry">
            <mxPoint x="-1590" y="1370" as="sourcePoint" />
            <mxPoint x="-2200" y="1650" as="targetPoint" />
            <Array as="points">
              <mxPoint x="-2000" y="1770" />
            </Array>
          </mxGeometry>
        </mxCell>
        <mxCell id="dJXp4Z6MerD060ASTxBt-29" value="&lt;font style=&quot;font-size: 36px;&quot;&gt;request&lt;/font&gt;" style="whiteSpace=wrap;html=1;" vertex="1" parent="1">
          <mxGeometry x="-1990" y="1830" width="320" height="60" as="geometry" />
        </mxCell>
        <mxCell id="dJXp4Z6MerD060ASTxBt-30" value="" style="shape=flexArrow;endArrow=classic;html=1;rounded=0;exitX=0;exitY=0.5;exitDx=0;exitDy=0;entryX=0.591;entryY=1;entryDx=0;entryDy=0;entryPerimeter=0;" edge="1" parent="1" source="dJXp4Z6MerD060ASTxBt-18" target="dJXp4Z6MerD060ASTxBt-2">
          <mxGeometry width="50" height="50" relative="1" as="geometry">
            <mxPoint x="-860" y="830" as="sourcePoint" />
            <mxPoint x="-810" y="780" as="targetPoint" />
            <Array as="points">
              <mxPoint x="-1860" y="1670" />
              <mxPoint x="-1850" y="1490" />
              <mxPoint x="-1860" y="1420" />
            </Array>
          </mxGeometry>
        </mxCell>
        <mxCell id="dJXp4Z6MerD060ASTxBt-31" value="&lt;font style=&quot;font-size: 36px;&quot;&gt;response&lt;/font&gt;" style="rounded=0;whiteSpace=wrap;html=1;" vertex="1" parent="1">
          <mxGeometry x="-1780" y="1580" width="300" height="60" as="geometry" />
        </mxCell>
        <mxCell id="dJXp4Z6MerD060ASTxBt-32" value="&lt;font style=&quot;font-size: 36px;&quot;&gt;( register ) ( Search )&lt;br&gt;&lt;/font&gt;" style="rounded=0;whiteSpace=wrap;html=1;" vertex="1" parent="1">
          <mxGeometry x="-1070" y="1250" width="420" height="60" as="geometry" />
        </mxCell>
        <mxCell id="dJXp4Z6MerD060ASTxBt-17" value="&lt;font style=&quot;font-size: 36px;&quot;&gt;( register ) ( Search )&lt;br&gt;&lt;/font&gt;" style="rounded=0;whiteSpace=wrap;html=1;" vertex="1" parent="1">
          <mxGeometry x="-2335" y="-820" width="420" height="60" as="geometry" />
        </mxCell>
        <mxCell id="dJXp4Z6MerD060ASTxBt-35" value="&lt;font style=&quot;font-size: 36px;&quot;&gt;HomePageDynamicData&lt;/font&gt;" style="rounded=0;whiteSpace=wrap;html=1;" vertex="1" parent="1">
          <mxGeometry x="190" y="770" width="540" height="390" as="geometry" />
        </mxCell>
        <mxCell id="dJXp4Z6MerD060ASTxBt-37" value="&lt;font style=&quot;font-size: 36px;&quot;&gt;ContactUs&lt;/font&gt;" style="rounded=0;whiteSpace=wrap;html=1;" vertex="1" parent="1">
          <mxGeometry x="190" y="2290" width="540" height="390" as="geometry" />
        </mxCell>
        <mxCell id="dJXp4Z6MerD060ASTxBt-38" value="&lt;font style=&quot;font-size: 36px;&quot;&gt;Search&lt;/font&gt;" style="rounded=0;whiteSpace=wrap;html=1;" vertex="1" parent="1">
          <mxGeometry x="190" y="1495" width="540" height="390" as="geometry" />
        </mxCell>
        <mxCell id="dJXp4Z6MerD060ASTxBt-39" value="&lt;div align=&quot;justify&quot;&gt;&lt;br&gt;&lt;/div&gt;&lt;font style=&quot;font-size: 36px;&quot;&gt;PublicSecurity&lt;/font&gt;" style="rounded=1;whiteSpace=wrap;html=1;arcSize=50;" vertex="1" parent="1">
          <mxGeometry x="-260" y="950" width="260" height="1610" as="geometry" />
        </mxCell>
        <mxCell id="dJXp4Z6MerD060ASTxBt-41" value="" style="shape=flexArrow;endArrow=classic;html=1;rounded=0;entryX=0;entryY=0.25;entryDx=0;entryDy=0;exitX=1;exitY=0.399;exitDx=0;exitDy=0;exitPerimeter=0;" edge="1" parent="1" source="dJXp4Z6MerD060ASTxBt-39" target="dJXp4Z6MerD060ASTxBt-38">
          <mxGeometry width="50" height="50" relative="1" as="geometry">
            <mxPoint y="1642" as="sourcePoint" />
            <mxPoint x="-40" y="1590" as="targetPoint" />
          </mxGeometry>
        </mxCell>
        <mxCell id="dJXp4Z6MerD060ASTxBt-42" value="" style="shape=flexArrow;endArrow=classic;html=1;rounded=0;entryX=-0.007;entryY=0.377;entryDx=0;entryDy=0;entryPerimeter=0;" edge="1" parent="1">
          <mxGeometry width="50" height="50" relative="1" as="geometry">
            <mxPoint x="4" y="2320" as="sourcePoint" />
            <mxPoint x="190" y="2320" as="targetPoint" />
          </mxGeometry>
        </mxCell>
        <mxCell id="dJXp4Z6MerD060ASTxBt-43" value="" style="shape=flexArrow;endArrow=classic;html=1;rounded=0;entryX=-0.007;entryY=0.377;entryDx=0;entryDy=0;entryPerimeter=0;" edge="1" parent="1">
          <mxGeometry width="50" height="50" relative="1" as="geometry">
            <mxPoint y="1030" as="sourcePoint" />
            <mxPoint x="186" y="1030" as="targetPoint" />
          </mxGeometry>
        </mxCell>
        <mxCell id="dJXp4Z6MerD060ASTxBt-44" value="" style="shape=flexArrow;endArrow=classic;html=1;rounded=0;exitX=0;exitY=0.75;exitDx=0;exitDy=0;entryX=1.008;entryY=0.517;entryDx=0;entryDy=0;entryPerimeter=0;" edge="1" parent="1" source="dJXp4Z6MerD060ASTxBt-38" target="dJXp4Z6MerD060ASTxBt-39">
          <mxGeometry width="50" height="50" relative="1" as="geometry">
            <mxPoint x="-90" y="1760" as="sourcePoint" />
            <mxPoint x="-40" y="1710" as="targetPoint" />
          </mxGeometry>
        </mxCell>
        <mxCell id="dJXp4Z6MerD060ASTxBt-45" value="" style="shape=flexArrow;endArrow=classic;html=1;rounded=0;exitX=0;exitY=0.75;exitDx=0;exitDy=0;entryX=1.008;entryY=0.517;entryDx=0;entryDy=0;entryPerimeter=0;" edge="1" parent="1">
          <mxGeometry width="50" height="50" relative="1" as="geometry">
            <mxPoint x="188" y="1126" as="sourcePoint" />
            <mxPoint y="1120" as="targetPoint" />
          </mxGeometry>
        </mxCell>
        <mxCell id="dJXp4Z6MerD060ASTxBt-46" value="" style="shape=flexArrow;endArrow=classic;html=1;rounded=0;exitX=0;exitY=0.75;exitDx=0;exitDy=0;entryX=1.008;entryY=0.517;entryDx=0;entryDy=0;entryPerimeter=0;" edge="1" parent="1">
          <mxGeometry width="50" height="50" relative="1" as="geometry">
            <mxPoint x="190" y="2446" as="sourcePoint" />
            <mxPoint x="2" y="2440" as="targetPoint" />
          </mxGeometry>
        </mxCell>
        <mxCell id="dJXp4Z6MerD060ASTxBt-47" value="&lt;font style=&quot;font-size: 36px;&quot;&gt;response&lt;/font&gt;" style="rounded=0;whiteSpace=wrap;html=1;" vertex="1" parent="1">
          <mxGeometry x="-500" y="1920" width="230" height="60" as="geometry" />
        </mxCell>
        <mxCell id="dJXp4Z6MerD060ASTxBt-49" value="&lt;font style=&quot;font-size: 36px;&quot;&gt;response&lt;/font&gt;" style="rounded=0;whiteSpace=wrap;html=1;" vertex="1" parent="1">
          <mxGeometry y="1810" width="185" height="60" as="geometry" />
        </mxCell>
        <mxCell id="dJXp4Z6MerD060ASTxBt-55" value="&lt;font style=&quot;font-size: 36px;&quot;&gt;response&lt;/font&gt;" style="rounded=0;whiteSpace=wrap;html=1;" vertex="1" parent="1">
          <mxGeometry y="1170" width="185" height="60" as="geometry" />
        </mxCell>
        <mxCell id="dJXp4Z6MerD060ASTxBt-56" value="&lt;font style=&quot;font-size: 36px;&quot;&gt;response&lt;/font&gt;" style="rounded=0;whiteSpace=wrap;html=1;" vertex="1" parent="1">
          <mxGeometry y="2480" width="185" height="60" as="geometry" />
        </mxCell>
        <mxCell id="dJXp4Z6MerD060ASTxBt-57" value="&lt;font style=&quot;font-size: 36px;&quot;&gt;request&lt;/font&gt;" style="whiteSpace=wrap;html=1;" vertex="1" parent="1">
          <mxGeometry x="-510" y="1480" width="230" height="60" as="geometry" />
        </mxCell>
        <mxCell id="dJXp4Z6MerD060ASTxBt-58" value="&lt;font style=&quot;font-size: 36px;&quot;&gt;request&lt;/font&gt;" style="whiteSpace=wrap;html=1;" vertex="1" parent="1">
          <mxGeometry x="10" y="1510" width="160" height="60" as="geometry" />
        </mxCell>
        <mxCell id="dJXp4Z6MerD060ASTxBt-59" value="&lt;font style=&quot;font-size: 36px;&quot;&gt;request&lt;/font&gt;" style="whiteSpace=wrap;html=1;" vertex="1" parent="1">
          <mxGeometry x="12.5" y="2210" width="160" height="60" as="geometry" />
        </mxCell>
        <mxCell id="dJXp4Z6MerD060ASTxBt-60" value="&lt;font style=&quot;font-size: 36px;&quot;&gt;request&lt;/font&gt;" style="whiteSpace=wrap;html=1;" vertex="1" parent="1">
          <mxGeometry x="10" y="950" width="160" height="60" as="geometry" />
        </mxCell>
        <mxCell id="dJXp4Z6MerD060ASTxBt-65" style="edgeStyle=orthogonalEdgeStyle;rounded=0;orthogonalLoop=1;jettySize=auto;html=1;entryX=1;entryY=0.75;entryDx=0;entryDy=0;exitX=-0.004;exitY=0.846;exitDx=0;exitDy=0;exitPerimeter=0;" edge="1" parent="1">
          <mxGeometry relative="1" as="geometry">
            <mxPoint x="1190.0000000000002" y="2582.84" as="sourcePoint" />
            <mxPoint x="731.2" y="2580" as="targetPoint" />
            <Array as="points">
              <mxPoint x="960" y="2583" />
              <mxPoint x="960" y="2580" />
            </Array>
          </mxGeometry>
        </mxCell>
        <mxCell id="dJXp4Z6MerD060ASTxBt-61" value="&lt;font style=&quot;font-size: 36px;&quot;&gt;publicDataBase&lt;/font&gt;" style="shape=cylinder3;whiteSpace=wrap;html=1;boundedLbl=1;backgroundOutline=1;size=15;" vertex="1" parent="1">
          <mxGeometry x="1190" y="2340" width="300" height="290" as="geometry" />
        </mxCell>
        <mxCell id="dJXp4Z6MerD060ASTxBt-64" style="edgeStyle=orthogonalEdgeStyle;rounded=0;orthogonalLoop=1;jettySize=auto;html=1;entryX=0;entryY=0.5;entryDx=0;entryDy=0;entryPerimeter=0;" edge="1" parent="1" source="dJXp4Z6MerD060ASTxBt-37" target="dJXp4Z6MerD060ASTxBt-61">
          <mxGeometry relative="1" as="geometry" />
        </mxCell>
        <mxCell id="dJXp4Z6MerD060ASTxBt-67" value="&lt;font style=&quot;font-size: 48px;&quot;&gt;EurekaRegistry&lt;/font&gt;" style="whiteSpace=wrap;html=1;aspect=fixed;" vertex="1" parent="1">
          <mxGeometry x="-800" y="280" width="420" height="420" as="geometry" />
        </mxCell>
        <mxCell id="dJXp4Z6MerD060ASTxBt-68" value="" style="endArrow=none;html=1;rounded=0;entryX=0.5;entryY=1;entryDx=0;entryDy=0;exitX=0.879;exitY=0.003;exitDx=0;exitDy=0;exitPerimeter=0;" edge="1" parent="1" source="dJXp4Z6MerD060ASTxBt-18" target="dJXp4Z6MerD060ASTxBt-67">
          <mxGeometry width="50" height="50" relative="1" as="geometry">
            <mxPoint x="-980" y="1330" as="sourcePoint" />
            <mxPoint x="-930" y="1280" as="targetPoint" />
          </mxGeometry>
        </mxCell>
        <mxCell id="dJXp4Z6MerD060ASTxBt-69" value="&lt;font style=&quot;font-size: 36px;&quot;&gt;( register ) ( Search )&lt;br&gt;&lt;/font&gt;" style="rounded=0;whiteSpace=wrap;html=1;" vertex="1" parent="1">
          <mxGeometry x="-800" y="1030" width="420" height="60" as="geometry" />
        </mxCell>
        <mxCell id="dJXp4Z6MerD060ASTxBt-78" style="edgeStyle=orthogonalEdgeStyle;rounded=0;orthogonalLoop=1;jettySize=auto;html=1;" edge="1" parent="1" source="dJXp4Z6MerD060ASTxBt-70" target="dJXp4Z6MerD060ASTxBt-76">
          <mxGeometry relative="1" as="geometry" />
        </mxCell>
        <mxCell id="dJXp4Z6MerD060ASTxBt-70" value="&lt;font style=&quot;font-size: 36px;&quot;&gt;publicDataBase&lt;/font&gt;" style="shape=cylinder3;whiteSpace=wrap;html=1;boundedLbl=1;backgroundOutline=1;size=15;" vertex="1" parent="1">
          <mxGeometry x="1210" y="-840" width="300" height="290" as="geometry" />
        </mxCell>
        <mxCell id="dJXp4Z6MerD060ASTxBt-71" value="&lt;font style=&quot;font-size: 48px;&quot;&gt;EurekaRegistry&lt;/font&gt;" style="whiteSpace=wrap;html=1;aspect=fixed;" vertex="1" parent="1">
          <mxGeometry x="-260" y="-1750" width="420" height="420" as="geometry" />
        </mxCell>
        <mxCell id="dJXp4Z6MerD060ASTxBt-73" style="edgeStyle=orthogonalEdgeStyle;rounded=0;orthogonalLoop=1;jettySize=auto;html=1;" edge="1" parent="1" source="dJXp4Z6MerD060ASTxBt-72" target="dJXp4Z6MerD060ASTxBt-70">
          <mxGeometry relative="1" as="geometry" />
        </mxCell>
        <mxCell id="dJXp4Z6MerD060ASTxBt-72" value="&lt;font style=&quot;font-size: 36px;&quot;&gt;HomePageDynamicData&lt;/font&gt;" style="rounded=0;whiteSpace=wrap;html=1;" vertex="1" parent="1">
          <mxGeometry x="110" y="-1130" width="550" height="390" as="geometry" />
        </mxCell>
        <mxCell id="dJXp4Z6MerD060ASTxBt-74" value="&lt;font style=&quot;font-size: 36px;&quot;&gt;Public-gate-Way&lt;/font&gt;" style="whiteSpace=wrap;html=1;aspect=fixed;" vertex="1" parent="1">
          <mxGeometry x="-750" y="-1140" width="660" height="660" as="geometry" />
        </mxCell>
        <mxCell id="dJXp4Z6MerD060ASTxBt-75" style="edgeStyle=orthogonalEdgeStyle;rounded=0;orthogonalLoop=1;jettySize=auto;html=1;" edge="1" parent="1" source="dJXp4Z6MerD060ASTxBt-72" target="dJXp4Z6MerD060ASTxBt-72">
          <mxGeometry relative="1" as="geometry" />
        </mxCell>
        <mxCell id="dJXp4Z6MerD060ASTxBt-77" style="edgeStyle=orthogonalEdgeStyle;rounded=0;orthogonalLoop=1;jettySize=auto;html=1;" edge="1" parent="1" source="dJXp4Z6MerD060ASTxBt-76" target="dJXp4Z6MerD060ASTxBt-67">
          <mxGeometry relative="1" as="geometry" />
        </mxCell>
        <mxCell id="dJXp4Z6MerD060ASTxBt-76" value="&lt;font style=&quot;font-size: 36px;&quot;&gt;HomePageDynamicData&lt;/font&gt;" style="rounded=0;whiteSpace=wrap;html=1;" vertex="1" parent="1">
          <mxGeometry x="270" y="-370" width="550" height="390" as="geometry" />
        </mxCell>
      </root>
    </mxGraphModel>
  </diagram>
</mxfile>
